<svg id="Layer_1" data-name="Layer 1" xmlns="http://www.w3.org/2000/svg" viewBox="0 0 400 300" width="406" height="306" class="illustration styles_illustrationTablet__1DWOa"><title>_</title><path d="M320,134.21A44.77,44.77,0,0,1,313.18,159a37.8,37.8,0,0,1-32.37,18q-33.13.08-66.26.09H180.29q-21.36,0-42.72-.08-11.23,0-22.47-.06c-18-.08-31.07-9.09-39.36-24.92a42.4,42.4,0,0,1-4.68-24.32,46.56,46.56,0,0,1,12.2-26.48A47.55,47.55,0,0,1,104,88.06c3-.93,3.47-3.52,4.32-5.94,4.52-12.75,15-21,27.46-21.77a33.2,33.2,0,0,1,8.65.6c5.18,1,7.46-.51,10.24-4.46a75.68,75.68,0,0,1,4.83-6.18c22.69-26.22,60.18-33.55,90.82-16.68,12.13,6.69,21.35,15.4,27.78,26a77.51,77.51,0,0,1,10.2,28.75c.18,1.06.33,2.13.46,3.21.34,2.69.09,5.66,3.48,6.85,13.38,4.7,24.84,16.68,27.26,30.82.06.32.12.66.16,1A30.81,30.81,0,0,1,320,134.21Z" fill="#e6e6e6"></path><rect x="157.91" y="73.93" width="88.05" height="39.34" opacity="0.04"></rect><ellipse cx="211.7" cy="264.05" rx="140.88" ry="11.38" fill="#e6e6e6" opacity="0.45"></ellipse><path d="M104.56,253.8s-8.93-2.44-10.87-10.75c0,0,13.83-2.8,14.22,11.48Z" fill="#68e1fd" opacity="0.58"></path><path d="M105.65,252.91s-6.24-9.86-.75-19.08c0,0,10.52,6.68,5.85,19.1Z" fill="#68e1fd" opacity="0.73"></path><path d="M107.26,252.92s3.29-10.42,13.26-12.39c0,0,1.86,6.76-6.45,12.42Z" fill="#68e1fd"></path><polygon points="100.78 252.68 102.59 265.07 113.99 265.11 115.67 252.75 100.78 252.68" fill="#24285b"></polygon><rect x="172.29" y="63.82" width="70.05" height="43.92" transform="translate(40.44 -64.18) rotate(19.47)" fill="#ffd200"></rect><rect x="154.09" y="90.87" width="94.98" height="55.34" fill="#ccc"></rect><polygon points="307.75 112.96 306.38 118.52 310.89 120.91 311.68 111.39 307.75 112.96" fill="#f4a28c"></polygon><path d="M312.74,106a3.39,3.39,0,0,0-5.66-.49c-1.67,2.09-3.63,5.37-1,6.86,4,2.28,7.13-2.83,7.13-2.83A6.22,6.22,0,0,0,312.74,106Z" fill="#f4a28c"></path><path d="M331.25,130.4s19.43,30.35,15.54,34.83c-12.34,14.19-39.73-17.77-39.73-17.77Z" fill="#f4a28c"></path><path d="M285.83,125.87a33.52,33.52,0,0,1,38.53-.69c5.08,3.46,9,8.62,7.21,16.11-4.2,17.55-17.65,29.11-18.07,44.54l-31.82-2.14V163.83a13.61,13.61,0,0,0-4.34-10c-2.78-2.56-5.54-6.73-3.65-12.45C275.37,136.27,279.72,130.36,285.83,125.87Z" fill="#68e1fd"></path><path d="M310.22,109.58s.91-.9,1.44.23-1.14,1.82-1.71,1.28S310.22,109.58,310.22,109.58Z" fill="#f4a28c"></path><path d="M303.1,134.14s6.87,13.14-1.11,26,7.15,25.34,7.15,25.34l-26-1.75V172.37Z" opacity="0.08"></path><path d="M316.35,126.27c-.62-2.37-3.45-6.69.54-14.48.85-1.65,1.51-5.51-.07-8.18-3.8-6.4-9.9-4.21-9.18-.63s1.23,5.29,1.23,5.29-11.55,8.29-9.87,14.4C300.5,128.09,318.92,136.17,316.35,126.27Z" fill="#24285b"></path><path d="M305.38,136.16a9.34,9.34,0,0,0-4.23-12.59,48.76,48.76,0,0,0-6.83-2.61c-14-4.29-38-15.31-51.53-34.94,0,0-3.81-7.44-9.76-5.8s-2.2,8.64,3.78,7.22c0,0,15.44,45.72,55.34,55.05a11.87,11.87,0,0,0,13.23-6.33Z" fill="#f4a28c"></path><path d="M311.94,189.19l8.45,27a27.71,27.71,0,0,0,14.55,16.75l12.41,5.9-.5,3.66-18.55-4a32.69,32.69,0,0,1-20.11-17.06l-13.09-27Z" fill="#f4a28c"></path><polygon points="283.97 196.8 280 254.63 283.69 255.91 298.37 201.81 283.97 196.8" fill="#f4a28c"></polygon><path d="M279.24,255.62s-.8,3.42-3.38,4.48-1.27,4.8,2.61,2.53a25,25,0,0,0,3.44-2.4,7.33,7.33,0,0,1,3.48-1.48,1.21,1.21,0,0,0,.94-1c.51-1.89-3.78-3.68-3.78-3.68Z" fill="#68e1fd"></path><path d="M346.85,242.49s2.62,2,2.54,4.61,3.61,2.93,3.16-1.26a23.47,23.47,0,0,0-.73-3.85,6.79,6.79,0,0,1,.07-3.55,1.14,1.14,0,0,0-.5-1.18c-1.42-1.17-4.59,1.81-4.59,1.81Z" fill="#68e1fd"></path><polygon points="314.75 177.73 281.52 177.73 276.24 223.71 325.52 221.49 314.75 177.73" fill="#24285b"></polygon><rect x="135.04" y="242.83" width="108.4" height="22.29" fill="#ccc"></rect><rect x="145.17" y="220.54" width="80.08" height="22.29" fill="#e6e6e6"></rect><polygon points="221.12 113.89 204.41 98.11 186.78 113.89 195.4 113.89 195.4 138.96 212.5 138.96 212.5 113.89 221.12 113.89" opacity="0.1"></polygon><polygon points="118.28 165.79 75.64 164.19 75.64 134.21 118.28 135.81 118.28 165.79" fill="#68e1fd"></polygon><path d="M111.52,149.45c0-5.14-6-9.31-13.31-9.31s-13.31,4.17-13.31,9.31,6,9.31,13.31,9.31a18.34,18.34,0,0,0,4.46-.55l.07,3.76,4.73-5.84C110,154.43,111.52,152.07,111.52,149.45Z" fill="#fff" opacity="0.46"></path><circle cx="90.8" cy="149.45" r="1.86" fill="#68e1fd"></circle><circle cx="98.21" cy="149.45" r="1.86" fill="#68e1fd"></circle><circle cx="105.62" cy="149.45" r="1.86" fill="#68e1fd"></circle><polygon points="131.01 110.22 84.07 110.22 85.45 76.99 132.39 76.99 131.01 110.22" fill="#68e1fd"></polygon><g opacity="0.7"><rect x="93.51" y="84.93" width="26.7" height="17.76" opacity="0.08"></rect><polygon points="123.6 87.49 122.74 84.48 110.92 84.48 108.72 87.49 98.15 87.49 94.75 102.72 121.45 102.72 124.85 87.49 123.6 87.49" fill="#f2f2f2"></polygon><polygon points="107.18 91.21 100.38 91.21 100.83 90.51 107.63 90.51 107.18 91.21" fill="#e6e6e6"></polygon></g><rect x="207.31" y="161.97" width="32.19" height="24.01" fill="#68e1fd"></rect><path d="M226.6,167.11a4.54,4.54,0,0,0-4.43-.83v10.94a5.22,5.22,0,0,0-4.29.67c-2.7,1.76-2.33,3.94-.34,4.24s6.73-.19,5.68-4.51V169l3.38,1a3.35,3.35,0,0,0,3.6-1.28S228.93,168.87,226.6,167.11Z" fill="#fff" opacity="0.46"></path><rect x="263.35" y="57.22" width="33.29" height="24.84" fill="#68e1fd"></rect><polygon points="275.83 76.11 275.83 63.16 287.85 69.64 275.83 76.11" fill="#fff" opacity="0.46"></polygon></svg>